<?xml version="1.0" encoding="utf-8"?>
<!-- Generator: Adobe Illustrator 26.3.1, SVG Export Plug-In . SVG Version: 6.00 Build 0)  -->
<svg version="1.1" id="レイヤー_1" xmlns="http://www.w3.org/2000/svg" xmlns:xlink="http://www.w3.org/1999/xlink" x="0px"
	 y="0px" viewBox="0 0 595.28 206.36" style="enable-background:new 0 0 595.28 206.36;" xml:space="preserve">
<style type="text/css">
	.st0{fill:#232B59;}
	.st1{fill:#E94D39;}
	.st2{fill:#02677A;}
	.st3{fill:#2BB9CE;}
	.st4{fill:none;stroke:#FFFFFF;stroke-miterlimit:10;}
</style>
<g>
	<path class="st0" d="M203.99,118.35h-7.57v-9.76h-41.91v34.66h41.91v-9.87h7.57v18.25h-57.04v-51.53h57.04V118.35z"/>
	<g>
		<path class="st0" d="M221.13,195.99h-4.02l0.34-1.61c-1.15,1.34-2.6,1.95-4.9,1.95c-3.94,0-6.77-2.26-5.74-7.54l2.33-11.94h4.09
			l-2.26,11.51c-0.65,3.4,0.69,4.36,2.83,4.36c2.52,0,4.25-1.68,4.74-4.32l2.26-11.55h4.06L221.13,195.99z"/>
		<path class="st0" d="M237.27,176.86h2.45l0.84-4.21h4.05l-0.84,4.21h4.05l-0.69,3.52h-4.02l-1.72,8.76
			c-0.42,2.22-0.27,3.18,1.87,3.18h1.57l-0.73,3.67h-1.87c-4.59,0-5.81-2.1-5.05-6.08l1.84-9.53h-2.45L237.27,176.86z"/>
		<path class="st0" d="M261.33,176.86h4.09l-3.71,19.13h-4.09L261.33,176.86z M262.56,169.59h4.48l-0.8,4.17h-4.48L262.56,169.59z"
			/>
		<path class="st0" d="M281.34,169.59h4.09l-3.79,19.43c-0.38,2.07-0.27,3.37,2.26,3.37l-0.69,3.6c-4.82,0-6.62-1.84-5.74-6.43
			L281.34,169.59z"/>
		<path class="st0" d="M300.85,176.86h4.09l-3.71,19.13h-4.09L300.85,176.86z M302.07,169.59h4.48l-0.8,4.17h-4.48L302.07,169.59z"
			/>
		<path class="st0" d="M317.91,176.86h2.45l0.84-4.21h4.06l-0.84,4.21h4.05l-0.69,3.52h-4.02l-1.72,8.76
			c-0.42,2.22-0.27,3.18,1.88,3.18h1.57l-0.73,3.67h-1.87c-4.59,0-5.81-2.1-5.05-6.08l1.84-9.53h-2.45L317.91,176.86z"/>
		<path class="st0" d="M341.97,176.86h4.09l-3.71,19.13h-4.09L341.97,176.86z M343.2,169.59h4.48l-0.8,4.17h-4.48L343.2,169.59z"/>
		<path class="st0" d="M371.89,193.12c-1.84,2.41-4.17,3.21-7.54,3.21c-4.93,0-7.69-3.48-6.69-8.65l0.5-2.6
			c1.07-5.62,4.02-8.57,9.41-8.57c5.09,0,7.12,3.44,6.04,8.8l-0.42,2.1h-11.44c-0.61,3.1,0.11,5.39,3.14,5.39
			c2.26,0,3.29-0.69,4.28-1.88L371.89,193.12z M362.4,184.28h7.31c0.38-2.79-0.46-4.21-2.79-4.21
			C364.54,180.07,363.09,181.68,362.4,184.28z"/>
		<path class="st0" d="M398.36,181.87c-0.69-1.19-1.53-1.72-3.83-1.72c-1.91,0-3.4,0.69-3.4,2.29c0,1.34,1.26,1.8,3.21,2.03
			c3.63,0.42,5.97,2.1,5.97,5.16c0,4.09-2.91,6.7-8.61,6.7c-3.9,0-5.7-1.26-6.92-3.29l3.37-2.1c0.65,1.19,1.68,1.8,4.21,1.8
			c2.33,0,3.79-0.92,3.79-2.45c0-1.3-1-1.72-3.56-2.07c-3.14-0.42-5.66-1.91-5.66-5.2c0-3.67,2.83-6.5,8.42-6.5
			c3.14,0,5.24,0.99,6.35,3.25L398.36,181.87z"/>
	</g>
	<polygon class="st0" points="265.38,100.11 265.38,108.6 276.87,108.6 276.87,143.26 228.66,143.26 228.66,108.6 240.15,108.6 
		240.15,100.11 219.83,100.11 219.83,151.64 285.71,151.64 285.71,100.11 	"/>
	<rect x="248.76" y="76.39" class="st1" width="8.02" height="49.48"/>
	<polygon class="st0" points="104.47,58.56 73.95,58.56 73.95,113.19 104.47,113.19 122.28,113.19 122.28,143.26 104.7,143.26 
		104.47,143.26 81.73,143.26 81.73,134.16 73.72,134.16 73.72,143.26 73.72,147.97 73.72,151.64 104.47,151.64 104.7,151.64 
		131.12,151.64 131.12,104.7 104.47,104.7 82.67,104.7 82.67,67.05 104.47,67.05 123.1,67.05 123.1,76.39 131.12,76.39 
		131.12,67.05 131.12,62.59 131.12,58.56 	"/>
	<polygon class="st0" points="354.84,100.11 322.01,100.11 301.54,100.11 301.54,151.3 310.26,151.3 310.26,108.6 322.01,108.6 
		334.02,108.6 334.02,150.49 342.52,150.49 342.52,108.6 354.84,108.6 366.17,108.6 366.17,151.3 375.01,151.3 375.01,100.11 	"/>
	<path class="st0" d="M419.44,100.11h-1.48h-18.29V58.56h-8.84v93.08h27.13h1.48h28.88v-51.53H419.44z M439.49,143.03h-20.05h-1.48
		h-18.29v-34.32h18.29h1.48h20.05V143.03z"/>
	<polygon class="st2" points="528.43,67.16 528.43,58.79 472.99,58.79 464.16,58.79 464.16,67.39 464.16,76.26 472.99,76.26 
		472.99,67.39 517.3,67.39 464.16,142.23 464.16,151.64 519.59,151.64 528.43,151.64 528.43,143.03 528.43,134.16 519.59,134.16 
		519.59,143.03 474.6,143.03 	"/>
	<g>
		<polygon class="st3" points="111.14,113.19 120.95,104.7 104.47,104.7 82.67,104.7 82.67,67.05 104.47,67.05 123.1,67.05 
			123.1,76.39 131.12,76.39 131.12,67.05 131.12,62.59 131.12,58.56 104.47,58.56 73.95,58.56 73.95,113.19 104.47,113.19 		"/>
		<polygon class="st3" points="81.73,138.66 81.73,134.16 73.72,134.16 73.72,143.26 73.72,145.6 		"/>
	</g>
	<polygon class="st3" points="310.26,121.18 310.26,108.6 322.01,108.6 324.58,108.6 334.25,100.11 322.01,100.11 301.54,100.11 
		301.54,128.84 	"/>
	<g>
		<polygon class="st3" points="196.43,143.26 164.47,143.26 154.93,151.64 203.99,151.64 203.99,133.39 196.43,133.39 		"/>
		<polygon class="st3" points="196.43,115.18 196.43,118.35 203.99,118.35 203.99,108.53 		"/>
	</g>
	<polygon class="st3" points="439.49,120.38 439.49,143.03 419.44,143.03 417.97,143.03 413.7,143.03 403.91,151.64 417.97,151.64 
		419.44,151.64 448.33,151.64 448.33,112.61 	"/>
	<path class="st4" d="M0,73.6"/>
</g>
</svg>
